# xmcd
#
# Track frame offsets:
#	150
#	11475
#	26700
#	44175
#	62400
#	78675
#	95850
#	110775
#	126525
#	141975
#	157425
#	168750
#	183975
#	201450
#	219675
#	235950
#	253125
#	268050
#	283800
#	299250
#	314700
#
# Disc length: 4432 seconds
#
# Revision: 1
# Processed by: cddbd v1.5.1PL2 Copyright (c) Steve Scherf et al.
# Submitted via: audiograbber 1.83.01
#
DISCID=64114e15
DTITLE=Country Hit List - Chl9712
DYEAR=1900
DGENRE=Karoke
TTITLE0=Wynonna Judd (Vocal) - When Love Starts Talkin'
TTITLE1=John Michael Montgomery (Vocal) - Angel In My Eyes
TTITLE2=Toby Keith And Sting (Vocal) - I'm So Happy I Can't Stop Crying
TTITLE3=Alan Jackson (Vocal) - Between The Devil And Me
TTITLE4=Sherrie Austin (Vocal) - One Solitary Tear
TTITLE5=Lonestar (Vocal) - You Walked In
TTITLE6=Leann Rimes (Vocal) - On The Side Of Angels
TTITLE7=Patty Loveless (Vocal) - You Don't Seem To Miss Me
TTITLE8=Michael Peterson (Vocal) - From Here To Eternity
TTITLE9=Tracy Lawrence (Vocal) - Coast Is Clear
TTITLE10=Wynonna Judd - When Love Starts Talkin'
TTITLE11=John Michael Montgomery - Angel In My Eyes
TTITLE12=Toby Keith And Sting - I'm So Happy I Can't Stop Crying (Solo)
TTITLE13=Alan Jackson - Between The Devil And Me
TTITLE14=Sherrie Austin - One Solitary Tear
TTITLE15=Lonestar - You Walked In
TTITLE16=Leann Rimes - On The Side Of Angels
TTITLE17=Patty Loveless - You Don't Seem To Miss Me
TTITLE18=Michael Peterson - From Here To Eternity
TTITLE19=Tracy Lawrence - Coast Is Clear
TTITLE20=Toby Keith And Sting - I'm So Happy I Can't Stop Crying (Duet)
EXTD=
EXTT0=
EXTT1=
EXTT2=
EXTT3=
EXTT4=
EXTT5=
EXTT6=
EXTT7=
EXTT8=
EXTT9=
EXTT10=
EXTT11=
EXTT12=
EXTT13=
EXTT14=
EXTT15=
EXTT16=
EXTT17=
EXTT18=
EXTT19=
EXTT20=
PLAYORDER=
